<svg xmlns="http://www.w3.org/2000/svg" width="1100" height="650" viewBox="0 0 1100 650">
<rect width="100%" height="100%" fill="#f0eee6"/>
<text x="60" y="65" font-family="Arial,sans-serif" font-size="30" font-weight="700" fill="#161512">Winner rate by hidden context</text>
<text x="60" y="98" font-family="Arial,sans-serif" font-size="16" fill="#4a463c">Five brands · cohort-wide equal-weight pooling</text>
<text x="80" y="150" font-family="Arial" font-size="16" fill="#161512">No context</text><rect x="270" y="132" width="204.6" height="28" rx="3" fill="#847e6d"/><text x="486.6" y="153" font-family="Arial" font-size="16" font-weight="700" fill="#161512">22%</text><text x="80" y="212" font-family="Arial" font-size="16" fill="#161512">User intent</text><rect x="270" y="194" width="322.71000000000004" height="28" rx="3" fill="#847e6d"/><text x="604.71" y="215" font-family="Arial" font-size="16" font-weight="700" fill="#161512">34.7%</text><text x="80" y="274" font-family="Arial" font-size="16" fill="#161512">Brand exposure</text><rect x="270" y="256" width="570.09" height="28" rx="3" fill="#847e6d"/><text x="852.09" y="277" font-family="Arial" font-size="16" font-weight="700" fill="#161512">61.3%</text><text x="80" y="336" font-family="Arial" font-size="16" fill="#161512">Feature exposure</text><rect x="270" y="318" width="595.2" height="28" rx="3" fill="#847e6d"/><text x="877.2" y="339" font-family="Arial" font-size="16" font-weight="700" fill="#161512">64%</text><text x="80" y="398" font-family="Arial" font-size="16" fill="#161512">Brand + feature</text><rect x="270" y="380" width="706.8" height="28" rx="3" fill="#847e6d"/><text x="988.8" y="401" font-family="Arial" font-size="16" font-weight="700" fill="#161512">76%</text><text x="80" y="460" font-family="Arial" font-size="16" fill="#161512">Campaign origin</text><rect x="270" y="442" width="818.4" height="28" rx="3" fill="#fe6a03"/><text x="1100.4" y="463" font-family="Arial" font-size="16" font-weight="700" fill="#161512">88%</text>
</svg>